<?xml version="1.0" encoding="iso-8859-1"?>
<!-- Generator: Adobe Illustrator 19.0.0, SVG Export Plug-In . SVG Version: 6.00 Build 0)  -->
<svg version="1.1" id="Layer_1" xmlns="http://www.w3.org/2000/svg" xmlns:xlink="http://www.w3.org/1999/xlink" x="0px" y="0px"
	 viewBox="0 0 512 512" style="enable-background:new 0 0 512 512;" xml:space="preserve">
<g>
	<g>
		<path d="M512,398.222V45.511H0v352.711h170.667v34.133h-62.578v34.133h295.822v-34.133h-62.578v-34.133H512z M34.133,79.644
			h443.733v216.178H34.133V79.644z M307.2,432.356H204.8v-34.133h102.4V432.356z M34.133,364.089v-34.133h443.733v34.133H34.133z"/>
	</g>
</g>
<g>
	<g>
		
			<rect x="159.455" y="170.667" transform="matrix(0.7071 -0.7071 0.7071 0.7071 -57.767 236.0057)" width="193.09" height="34.133"/>
	</g>
</g>
<g>
	<g>
		
			<rect x="178.299" y="125.161" transform="matrix(0.7071 -0.7071 0.7071 0.7071 -38.9217 190.4895)" width="64.363" height="34.133"/>
	</g>
</g>
<g>
	<g>
		
			<rect x="269.338" y="216.177" transform="matrix(0.7071 -0.7071 0.7071 0.7071 -76.6152 281.5222)" width="64.363" height="34.133"/>
	</g>
</g>
<g>
</g>
<g>
</g>
<g>
</g>
<g>
</g>
<g>
</g>
<g>
</g>
<g>
</g>
<g>
</g>
<g>
</g>
<g>
</g>
<g>
</g>
<g>
</g>
<g>
</g>
<g>
</g>
<g>
</g>
</svg>
